<svg width="190" height="30" viewBox="0 0 190 30" fill="none" xmlns="http://www.w3.org/2000/svg">
<rect width="30" height="30" rx="5" fill="white"/>
<g clip-path="url(#clip0_16_196)">
<path d="M12.8475 17.6505L12.5167 22.3039C12.99 22.3039 13.195 22.1005 13.4409 21.8564L15.66 19.7355L20.2583 23.103C21.1017 23.573 21.6958 23.3255 21.9233 22.3272L24.9417 8.18385L24.9425 8.18302C25.21 6.93635 24.4917 6.44885 23.67 6.75469L5.92836 13.5472C4.71753 14.0172 4.73586 14.6922 5.72253 14.998L10.2584 16.4089L20.7942 9.81635C21.29 9.48802 21.7408 9.66969 21.37 9.99802L12.8475 17.6505Z" fill="#17181C"/>
</g>
<rect x="40" width="30" height="30" rx="5" fill="white"/>
<g clip-path="url(#clip1_16_196)">
<path d="M61.5958 15.857C61.2725 15.4487 61.365 15.267 61.5958 14.902C61.6 14.8978 64.2692 11.2095 64.5442 9.95866L64.5458 9.95783C64.6825 9.50199 64.5458 9.16699 63.885 9.16699H61.6983C61.1417 9.16699 60.885 9.45449 60.7475 9.77616C60.7475 9.77616 59.6342 12.4412 58.0592 14.1687C57.5508 14.6678 57.3158 14.8278 57.0383 14.8278C56.9017 14.8278 56.6892 14.6678 56.6892 14.212V9.95783C56.6892 9.41116 56.5333 9.16699 56.0725 9.16699H52.6342C52.285 9.16699 52.0775 9.42199 52.0775 9.65949C52.0775 10.1778 52.865 10.297 52.9467 11.7553V14.9195C52.9467 15.6128 52.8208 15.7403 52.5417 15.7403C51.7983 15.7403 49.9942 13.0645 48.925 10.002C48.7092 9.40783 48.4983 9.16783 47.9375 9.16783H45.75C45.1258 9.16783 45 9.45533 45 9.77699C45 10.3453 45.7433 13.1712 48.4567 16.9045C50.265 19.4528 52.8117 20.8337 55.1283 20.8337C56.5208 20.8337 56.6908 20.527 56.6908 19.9995C56.6908 17.5645 56.565 17.3345 57.2625 17.3345C57.5858 17.3345 58.1425 17.4945 59.4425 18.7237C60.9283 20.1812 61.1725 20.8337 62.0042 20.8337H64.1908C64.8142 20.8337 65.13 20.527 64.9483 19.922C64.5325 18.6495 61.7225 16.032 61.5958 15.857Z" fill="#17181C"/>
</g>
<rect x="80" width="30" height="30" rx="5" fill="white"/>
<g clip-path="url(#clip2_16_196)">
<path d="M104.98 10.8801C104.934 9.81738 104.762 9.0868 104.516 8.45374C104.262 7.78176 103.871 7.18014 103.359 6.68002C102.859 6.1721 102.253 5.77743 101.589 5.52745C100.952 5.28127 100.226 5.10943 99.163 5.06257C98.0923 5.01175 97.7525 5 95.0371 5C92.3217 5 91.9818 5.01175 90.9152 5.05861C89.8525 5.10546 89.1219 5.27746 88.489 5.52348C87.8169 5.77743 87.2153 6.16814 86.7152 6.68002C86.2073 7.18014 85.8127 7.78573 85.5626 8.44992C85.3164 9.0868 85.1446 9.81341 85.0977 10.8761C85.0469 11.9467 85.0352 12.2866 85.0352 15.002C85.0352 17.7173 85.0469 18.0572 85.0938 19.1239C85.1406 20.1865 85.3126 20.9171 85.5588 21.5502C85.8127 22.2221 86.2073 22.8238 86.7152 23.3239C87.2153 23.8318 87.8209 24.2265 88.4851 24.4765C89.1219 24.7226 89.8486 24.8945 90.9114 24.9413C91.9779 24.9883 92.3179 24.9999 95.0333 24.9999C97.7486 24.9999 98.0885 24.9883 99.1552 24.9413C100.218 24.8945 100.948 24.7226 101.581 24.4765C102.925 23.9568 103.988 22.8941 104.508 21.5502C104.754 20.9133 104.926 20.1865 104.973 19.1239C105.019 18.0572 105.031 17.7173 105.031 15.002C105.031 12.2866 105.027 11.9467 104.98 10.8801ZM103.179 19.0457C103.136 20.0225 102.972 20.5499 102.836 20.9015C102.499 21.7728 101.808 22.4643 100.937 22.8004C100.585 22.9372 100.054 23.1012 99.0808 23.1441C98.026 23.1911 97.7096 23.2027 95.0411 23.2027C92.3725 23.2027 92.0522 23.1911 91.0011 23.1441C90.0244 23.1012 89.4969 22.9372 89.1453 22.8004C88.7117 22.6402 88.317 22.3862 87.9967 22.0541C87.6646 21.7298 87.4106 21.3391 87.2504 20.9055C87.1137 20.5539 86.9496 20.0225 86.9067 19.0497C86.8597 17.9948 86.8481 17.6783 86.8481 15.0097C86.8481 12.3412 86.8597 12.0209 86.9067 10.9699C86.9496 9.99319 87.1137 9.46575 87.2504 9.11412C87.4106 8.68038 87.6646 8.28586 88.0007 7.96536C88.3248 7.63327 88.7155 7.37931 89.1493 7.21921C89.5009 7.08247 90.0323 6.9184 91.0051 6.87537C92.06 6.82851 92.3765 6.81676 95.0449 6.81676C97.7174 6.81676 98.0337 6.82851 99.0848 6.87537C100.062 6.9184 100.589 7.08247 100.941 7.21921C101.374 7.37931 101.769 7.63327 102.089 7.96536C102.421 8.28967 102.675 8.68038 102.836 9.11412C102.972 9.46575 103.136 9.99701 103.179 10.9699C103.226 12.0248 103.238 12.3412 103.238 15.0097C103.238 17.6783 103.226 17.9908 103.179 19.0457Z" fill="#17181C"/>
<path d="M95.0371 9.86426C92.2007 9.86426 89.8994 12.1654 89.8994 15.002C89.8994 17.8385 92.2007 20.1397 95.0371 20.1397C97.8737 20.1397 100.175 17.8385 100.175 15.002C100.175 12.1654 97.8737 9.86426 95.0371 9.86426ZM95.0371 18.3347C93.197 18.3347 91.7044 16.8422 91.7044 15.002C91.7044 13.1617 93.197 11.6693 95.0371 11.6693C96.8774 11.6693 98.3698 13.1617 98.3698 15.002C98.3698 16.8422 96.8774 18.3347 95.0371 18.3347Z" fill="#17181C"/>
<path d="M101.577 9.66085C101.577 10.3232 101.04 10.8603 100.378 10.8603C99.7155 10.8603 99.1785 10.3232 99.1785 9.66085C99.1785 8.99834 99.7155 8.46143 100.378 8.46143C101.04 8.46143 101.577 8.99834 101.577 9.66085Z" fill="#17181C"/>
</g>
<rect x="120" width="30" height="30" rx="5" fill="white"/>
<path d="M128.333 8.3335H141.667C142.583 8.3335 143.333 9.0835 143.333 10.0002V20.0002C143.333 20.9168 142.583 21.6668 141.667 21.6668H128.333C127.417 21.6668 126.667 20.9168 126.667 20.0002V10.0002C126.667 9.0835 127.417 8.3335 128.333 8.3335Z" stroke="#17181C" stroke-width="2" stroke-linecap="round" stroke-linejoin="round"/>
<path d="M143.333 10L135 15.8333L126.667 10" stroke="#17181C" stroke-width="2" stroke-linecap="round" stroke-linejoin="round"/>
<rect x="160" width="30" height="30" rx="5" fill="white"/>
<g clip-path="url(#clip3_16_196)">
<path d="M177.542 9.16683C178.356 9.32563 179.104 9.72371 179.69 10.3101C180.277 10.8965 180.675 11.6446 180.833 12.4585M177.542 5.8335C179.233 6.02136 180.81 6.77864 182.014 7.981C183.218 9.18336 183.977 10.7593 184.167 12.4502M183.333 19.1002V21.6002C183.334 21.8322 183.287 22.062 183.194 22.2746C183.101 22.4873 182.965 22.6782 182.794 22.835C182.622 22.9919 182.421 23.1114 182.201 23.1858C181.981 23.2601 181.748 23.2877 181.517 23.2668C178.952 22.9882 176.489 22.1119 174.325 20.7085C172.312 19.429 170.605 17.722 169.325 15.7085C167.917 13.5345 167.04 11.0593 166.767 8.4835C166.746 8.25305 166.773 8.0208 166.847 7.80152C166.921 7.58224 167.04 7.38074 167.196 7.20985C167.352 7.03896 167.542 6.90242 167.753 6.80893C167.965 6.71544 168.194 6.66705 168.425 6.66683H170.925C171.33 6.66285 171.722 6.80606 172.028 7.06977C172.335 7.33349 172.535 7.6997 172.592 8.10016C172.697 8.90022 172.893 9.68577 173.175 10.4418C173.287 10.7401 173.311 11.0643 173.245 11.3759C173.179 11.6875 173.024 11.9736 172.8 12.2002L171.742 13.2585C172.928 15.3448 174.655 17.0722 176.742 18.2585L177.8 17.2002C178.027 16.9761 178.313 16.8217 178.624 16.7552C178.936 16.6888 179.26 16.713 179.558 16.8252C180.315 17.1073 181.1 17.303 181.9 17.4085C182.305 17.4656 182.675 17.6695 182.939 17.9814C183.203 18.2933 183.344 18.6915 183.333 19.1002Z" stroke="#17181C" stroke-width="2" stroke-linecap="round" stroke-linejoin="round"/>
</g>
<defs>
<clipPath id="clip0_16_196">
<rect width="20" height="20" fill="white" transform="translate(5 5)"/>
</clipPath>
<clipPath id="clip1_16_196">
<rect width="20" height="20" fill="white" transform="translate(45 5)"/>
</clipPath>
<clipPath id="clip2_16_196">
<rect width="20" height="20" fill="white" transform="translate(85 5)"/>
</clipPath>
<clipPath id="clip3_16_196">
<rect width="20" height="20" fill="white" transform="translate(165 5)"/>
</clipPath>
</defs>
</svg>
